HIERARCHY
ROOT Hips
{
	OFFSET 0.000000 0.000000 0.000000
	CHANNELS 6 Xposition Yposition Zposition Yrotation Xrotation Zrotation
	JOINT Chest
	{
		OFFSET 0.000000 -0.009281 11.569106
		CHANNELS 3 Yrotation Xrotation Zrotation
		JOINT Chest2
		{
			OFFSET -0.000000 0.016865 9.269641
			CHANNELS 3 Yrotation Xrotation Zrotation
			JOINT Chest3
			{
				OFFSET -0.000000 0.000001 8.374491
				CHANNELS 3 Yrotation Xrotation Zrotation
				JOINT Chest4
				{
					OFFSET -0.000000 0.000001 8.374493
					CHANNELS 3 Yrotation Xrotation Zrotation
					JOINT Neck
					{
						OFFSET -0.000000 0.000002 12.152554
						CHANNELS 3 Yrotation Xrotation Zrotation
						JOINT Head
						{
							OFFSET -0.000000 0.040101 7.802319
							CHANNELS 3 Yrotation Xrotation Zrotation
							End Site
							{
								OFFSET -0.000000 0.020947 14.853096
							}
						}
					}
					JOINT RightCollar
					{
						OFFSET 2.894404 0.000001 6.791374
						CHANNELS 3 Yrotation Xrotation Zrotation
						JOINT RightShoulder
						{
							OFFSET 13.574684 0.000001 0.000000
							CHANNELS 3 Yrotation Xrotation Zrotation
							JOINT RightElbow
							{
								OFFSET 23.923903 0.000002 0.000000
								CHANNELS 3 Yrotation Xrotation Zrotation
								JOINT RightWrist
								{
									OFFSET 19.846718 0.012767 0.000000
									CHANNELS 3 Yrotation Xrotation Zrotation
									End Site
									{
										OFFSET 14.973145 0.000001 0.000000
									}
								}
							}
						}
					}
					JOINT LeftCollar
					{
						OFFSET -2.894404 0.000001 6.791374
						CHANNELS 3 Yrotation Xrotation Zrotation
						JOINT LeftShoulder
						{
							OFFSET -13.574684 -0.000001 0.000000
							CHANNELS 3 Yrotation Xrotation Zrotation
							JOINT LeftElbow
							{
								OFFSET -23.923903 -0.000002 0.000000
								CHANNELS 3 Yrotation Xrotation Zrotation
								JOINT LeftWrist
								{
									OFFSET -19.846718 0.012763 0.000000
									CHANNELS 3 Yrotation Xrotation Zrotation
									End Site
									{
										OFFSET -14.973145 -0.000001 0.000000
									}
								}
							}
						}
					}
				}
			}
		}
	}
	JOINT RightHip
	{
		OFFSET 9.469263 0.004643 0.045487
		CHANNELS 3 Yrotation Xrotation Zrotation
		JOINT RightKnee
		{
			OFFSET 0.000000 0.002661 -40.478676
			CHANNELS 3 Yrotation Xrotation Zrotation
			JOINT RightAnkle
			{
				OFFSET 0.000000 0.049106 -35.224068
				CHANNELS 3 Yrotation Xrotation Zrotation
				JOINT RightToe
				{
					OFFSET -0.000001 12.539529 -6.151390
					CHANNELS 3 Yrotation Xrotation Zrotation
					End Site
					{
						OFFSET -0.000001 5.044994 -1.291870
					}
				}
			}
		}
	}
	JOINT LeftHip
	{
		OFFSET -9.469263 0.004641 0.045487
		CHANNELS 3 Yrotation Xrotation Zrotation
		JOINT LeftKnee
		{
			OFFSET 0.000000 0.002661 -40.478676
			CHANNELS 3 Yrotation Xrotation Zrotation
			JOINT LeftAnkle
			{
				OFFSET 0.000000 0.049106 -35.224068
				CHANNELS 3 Yrotation Xrotation Zrotation
				JOINT LeftToe
				{
					OFFSET -0.000001 12.539529 -6.151390
					CHANNELS 3 Yrotation Xrotation Zrotation
					End Site
					{
						OFFSET -0.000001 5.044994 -1.291870
					}
				}
			}
		}
	}
}
MOTION
Frames: 15
Frame Time: 0.016667
60.006798 -2.517637 82.025261 -5.527714 -1.289048 -136.342146 -2.550642 -6.984661 0.809011 -1.122190 -3.127607 0.331206 -1.122191 -3.127607 0.331209 -0.839737 -2.346321 0.242598 2.924607 -26.274426 -4.726249 4.154065 -12.564294 -7.773271 9.650895 7.576693 -0.993699 42.388011 -14.407312 -13.982114 -52.404657 -59.552884 114.417635 -66.732874 39.039766 33.576162 -7.466125 4.854848 -5.346424 -40.331393 -14.141829 21.707938 18.588572 -59.512456 -83.900282 37.219682 26.589339 -67.138164 -10.499379 13.788522 -25.752421 1.031244 -2.790429 -13.281062 0.253261 -9.123797 3.910791 -0.068953 -0.714788 -0.032492 -9.513613 -4.490879 12.904389 -4.594462 -2.827537 10.478332 8.559781 4.249829 9.583758 -0.287790 -0.371730 0.002362 
60.164307 -2.569810 81.962692 -5.639112 -1.302979 -136.439818 -2.601992 -6.982152 0.776538 -1.138428 -3.121914 0.315076 -1.138428 -3.121914 0.315078 -0.852000 -2.342034 0.230428 2.899746 -26.292267 -4.721617 4.111630 -12.598339 -7.770915 9.658284 7.544185 -1.013253 42.470345 -14.359358 -14.014895 -52.322555 -59.567808 114.247379 -66.679899 39.034343 33.602967 -7.458129 4.821664 -5.358380 -40.281693 -14.196008 21.704610 18.479499 -59.524552 -83.884354 37.235855 26.648096 -67.136081 -10.385366 13.337484 -26.062687 0.838276 -2.463805 -13.268136 0.594226 -9.165234 3.912346 -0.239487 -0.494776 -0.007131 -9.695858 -4.665172 12.835107 -4.541233 -2.851279 10.580216 8.653116 4.538136 9.704640 -0.291140 -0.413081 0.009368 
60.314117 -2.624039 81.900383 -5.743889 -1.299423 -136.518570 -2.652168 -6.967943 0.741328 -1.153312 -3.110915 0.299347 -1.153312 -3.110915 0.299350 -0.863246 -2.333762 0.218576 2.874373 -26.305005 -4.720039 4.067356 -12.622958 -7.774045 9.660451 7.524840 -1.036322 42.564287 -14.298181 -14.080047 -52.288349 -59.533254 114.103884 -66.596434 39.015697 33.654616 -7.458941 4.786368 -5.375125 -40.221925 -14.261476 21.714435 18.355522 -59.520891 -83.883595 37.256653 26.685414 -67.112196 -10.196382 12.834633 -26.550470 0.609346 -1.811100 -13.324202 1.058971 -9.330761 3.912665 -0.558183 -0.397852 0.023938 -9.885449 -4.821100 12.709169 -4.472334 -2.875403 10.647530 8.754954 4.802420 9.804545 -0.307826 -0.443917 0.006967 
60.457150 -2.687244 81.842491 -5.814262 -1.281478 -136.616078 -2.695013 -6.939558 0.726704 -1.165632 -3.091517 0.288437 -1.165632 -3.091519 0.288430 -0.872552 -2.319199 0.210368 2.850541 -26.317293 -4.719722 4.025534 -12.646676 -7.779055 9.676662 7.543143 -1.046340 42.649136 -14.227006 -14.168849 -52.308054 -59.511650 114.007919 -66.489091 38.983158 33.731815 -7.476326 4.808041 -5.382745 -40.159504 -14.320146 21.756675 18.297076 -59.538602 -83.927937 37.272465 26.726821 -67.092122 -9.921104 12.366799 -27.172659 0.325224 -0.856773 -13.593742 1.564134 -9.783542 4.104020 -0.946475 -0.305855 0.056706 -10.065620 -4.935787 12.570250 -4.386033 -2.901150 10.682752 8.858775 5.040571 9.979274 -0.330545 -0.461733 0.008875 
60.589100 -2.750657 81.791084 -5.857463 -1.261875 -136.751848 -2.722301 -6.904458 0.723998 -1.174355 -3.069653 0.286408 -1.174356 -3.069653 0.286407 -0.879118 -2.302801 0.208851 2.821249 -26.323129 -4.717403 3.974125 -12.658648 -7.781620 9.691513 7.571066 -1.036431 42.682924 -14.147065 -14.224851 -52.409746 -59.557071 114.033963 -66.422551 38.968084 33.781330 -7.505452 4.866923 -5.347948 -40.113448 -14.330481 21.796547 18.304303 -59.590450 -83.990194 37.259211 26.759057 -67.099717 -9.760700 12.131833 -27.893492 0.057935 -0.293208 -13.767780 2.252003 -10.279175 4.405180 -1.362073 -0.109517 0.086167 -10.217106 -5.010065 12.429847 -4.306926 -2.944757 10.791597 8.954363 5.262457 10.198607 -0.351465 -0.459425 0.011364 
60.703712 -2.809033 81.744720 -5.868576 -1.264191 -136.943176 -2.715521 -6.864290 0.749979 -1.183563 -3.054667 0.293895 -1.183562 -3.054667 0.293896 -0.885991 -2.291578 0.214448 2.789993 -26.311986 -4.711493 3.919208 -12.639185 -7.777951 9.695457 7.605231 -1.022399 42.685421 -14.137125 -14.219159 -52.477733 -59.682302 114.079268 -66.413078 38.978783 33.787887 -7.512935 4.934308 -5.302329 -40.117369 -14.277878 21.848553 18.339621 -59.641205 -84.048128 37.221321 26.751927 -67.127741 -9.763509 12.129687 -28.595429 -0.036439 -0.206142 -13.460809 2.870574 -10.883968 4.343304 -1.616238 0.293569 0.112978 -10.308279 -5.056946 12.325163 -4.255636 -3.007043 10.961486 9.036522 5.466738 10.352888 -0.362200 -0.435784 0.007025 
60.814880 -2.864436 81.703094 -5.912840 -1.279500 -137.146633 -2.725404 -6.847258 0.782191 -1.197003 -3.050564 0.306857 -1.197003 -3.050564 0.306857 -0.896008 -2.288535 0.224108 2.771476 -26.287738 -4.706910 3.886086 -12.594908 -7.773605 9.705788 7.622419 -0.996835 42.674424 -14.231169 -14.170840 -52.341140 -59.850352 113.970647 -66.474447 39.015963 33.749580 -7.494109 4.957441 -5.281597 -40.151182 -14.171968 21.905535 18.388374 -59.640447 -84.111321 37.161734 26.693330 -67.172110 -9.835232 12.163186 -29.240173 -0.076649 -0.251707 -12.747642 3.264968 -11.681647 3.954228 -1.604798 0.830561 0.130302 -10.404447 -5.125048 12.246424 -4.224890 -3.086361 11.123677 9.105930 5.684110 10.420534 -0.351598 -0.422886 0.013538 
60.918602 -2.917232 81.665077 -5.987366 -1.327012 -137.323317 -2.732040 -6.847024 0.806002 -1.212570 -3.059419 0.317720 -1.212570 -3.059418 0.317723 -0.907620 -2.295206 0.232161 2.769272 -26.264628 -4.705660 3.881342 -12.552123 -7.771526 9.688592 7.515786 -1.003785 42.679916 -14.349063 -14.022476 -52.012348 -60.008724 113.688000 -66.550925 39.047754 33.707301 -7.465073 4.917537 -5.287701 -40.183850 -14.050618 21.931333 18.471739 -59.588865 -84.209450 37.104678 26.626002 -67.214082 -9.858377 12.085577 -29.815558 -0.166752 -0.214213 -11.787151 3.527194 -12.643392 3.363161 -1.412478 1.387878 0.142626 -10.480692 -5.238993 12.166186 -4.205369 -3.170032 11.275952 9.155125 5.896009 10.444794 -0.332406 -0.414618 0.013081 
61.013855 -2.995946 81.630272 -6.088664 -1.398850 -137.442749 -2.741924 -6.864516 0.818098 -1.227603 -3.076911 0.321001 -1.227603 -3.076911 0.321005 -0.918865 -2.308340 0.234510 2.781805 -26.248502 -4.710534 3.901824 -12.521741 -7.777148 9.666283 7.364192 -1.038438 42.692494 -14.434509 -13.853622 -51.615497 -60.100180 113.319423 -66.600915 39.063853 33.686042 -7.435903 4.860004 -5.317330 -40.184735 -13.977722 21.907087 18.556009 -59.530228 -84.318480 37.081145 26.602041 -67.245671 -9.847692 11.861354 -30.238822 -0.263667 -0.065747 -10.946907 3.652994 -13.744042 2.844326 -1.117805 1.930935 0.158343 -10.558048 -5.388346 12.080536 -4.171294 -3.262387 11.457367 9.172836 6.116893 10.501630 -0.303829 -0.414498 0.017730 
61.106575 -3.082859 81.600601 -6.216695 -1.476374 -137.489987 -2.767858 -6.893464 0.805026 -1.236498 -3.094224 0.315063 -1.236499 -3.094223 0.315060 -0.925553 -2.321318 0.229974 2.800983 -26.247888 -4.723921 3.932985 -12.519919 -7.796690 9.657163 7.291746 -1.067419 42.722092 -14.460996 -13.788207 -51.389787 -60.087380 113.061931 -66.604030 39.056087 33.701349 -7.426057 4.824738 -5.351370 -40.155102 -14.009322 21.834083 18.568294 -59.494158 -84.366490 37.095912 26.645575 -67.259673 -9.842544 11.547215 -30.401428 -0.339337 0.123228 -10.597373 3.639631 -14.694040 2.559548 -0.797435 2.253150 0.169354 -10.648868 -5.561957 11.977573 -4.104795 -3.364973 11.632505 9.160036 6.314571 10.575780 -0.282869 -0.398742 0.014328 
61.196266 -3.169617 81.581764 -6.351933 -1.570274 -137.457707 -2.797340 -6.920550 0.755804 -1.230491 -3.100670 0.296333 -1.230491 -3.100669 0.296327 -0.921139 -2.326111 0.215948 2.810313 -26.283285 -4.739321 3.947838 -12.585319 -7.822585 9.653457 7.261925 -1.090177 42.737843 -14.388881 -13.785931 -51.365956 -60.023224 112.973098 -66.547482 39.041269 33.758370 -7.452436 4.799473 -5.362356 -40.109849 -14.132795 21.737412 18.479290 -59.496835 -84.300688 37.146028 26.750769 -67.268573 -9.861048 11.212797 -30.292213 -0.361549 0.284938 -10.813275 3.500836 -15.433026 2.520354 -0.511069 2.365102 0.177667 -10.731873 -5.744557 11.846391 -4.003051 -3.487113 11.763292 9.125623 6.469074 10.542362 -0.271804 -0.354927 0.010517 
61.256233 -3.272437 81.604195 -6.338901 -1.739343 -137.421548 -2.682284 -6.889431 0.711535 -1.209428 -3.100845 0.268619 -1.209428 -3.100845 0.268622 -0.905486 -2.326177 0.195274 2.803095 -26.342516 -4.749656 3.935505 -12.695561 -7.843558 9.641995 7.292993 -1.106861 42.731719 -14.269921 -13.812060 -51.477678 -59.963146 113.032247 -66.457174 39.031365 33.830579 -7.499168 4.812625 -5.339362 -40.090185 -14.292317 21.665196 18.332272 -59.533001 -84.160450 37.216676 26.879100 -67.260527 -9.712051 10.993897 -29.947012 -0.366099 0.393363 -11.339233 3.321651 -15.750389 2.551580 -0.302708 2.097282 0.151271 -10.647843 -5.875154 11.763423 -3.887424 -3.619635 11.850149 9.089851 6.638430 10.539164 -0.271915 -0.336379 -0.000443 
61.326015 -3.326950 81.613403 -6.343374 -1.937699 -137.408270 -2.573906 -6.891705 0.685260 -1.182702 -3.100166 0.239495 -1.182702 -3.100167 0.239498 -0.885594 -2.325599 0.173573 2.783663 -26.401553 -4.750672 3.903483 -12.805869 -7.850630 9.638384 7.413070 -1.099103 42.706861 -14.200434 -13.868934 -51.567863 -59.920471 113.103152 -66.367603 39.031352 33.894704 -7.548991 4.863280 -5.306044 -40.113103 -14.411160 21.654638 18.181713 -59.575225 -83.994989 37.282082 26.993150 -67.234374 -9.531474 10.742337 -29.488317 -0.395527 0.452094 -11.822822 3.224448 -15.972362 2.495205 -0.158038 1.847131 0.120906 -10.580531 -6.029434 11.797768 -3.774785 -3.734221 11.887515 9.053142 6.803848 10.566263 -0.243704 -0.324338 0.041273 
61.421391 -3.420216 81.627373 -6.370720 -2.111756 -137.365882 -2.499587 -6.902555 0.626318 -1.160742 -3.097012 0.217546 -1.160743 -3.097013 0.217542 -0.869241 -2.323183 0.157227 2.764902 -26.451139 -4.747882 3.873057 -12.898612 -7.850604 9.651435 7.563528 -1.090275 42.681193 -14.210508 -13.935014 -51.577716 -59.896401 113.109695 -66.299594 39.031348 33.945986 -7.559802 4.909469 -5.276849 -40.183868 -14.427731 21.683726 18.080735 -59.621466 -83.857197 37.316923 27.058681 -67.208201 -9.453524 10.556576 -29.128595 -0.433028 0.441103 -12.010539 3.247446 -16.221527 2.234036 -0.064184 1.657424 0.091567 -10.531742 -6.229620 11.862996 -3.674932 -3.818537 11.906266 9.000618 6.938577 10.579229 -0.220711 -0.274426 0.059302 
61.522797 -3.493390 81.641571 -6.370378 -2.275971 -137.364229 -2.419446 -6.901808 0.604016 -1.145970 -3.094008 0.203562 -1.145970 -3.094009 0.203562 -0.858238 -2.320897 0.146828 2.756921 -26.478174 -4.743566 3.861101 -12.949047 -7.845101 9.672965 7.706285 -1.086468 42.666942 -14.269029 -13.986388 -51.511511 -59.892474 113.038026 -66.239878 39.037881 33.988357 -7.548889 4.965440 -5.248195 -40.267414 -14.370185 21.724938 18.028240 -59.662836 -83.757421 37.316349 27.060677 -67.190190 -9.343717 10.369154 -28.863150 -0.454444 0.410056 -11.888253 3.332160 -16.322363 1.797513 0.007717 1.433522 0.059743 -10.469848 -6.418873 11.945074 -3.595316 -3.868908 11.946579 8.954171 7.068862 10.418483 -0.194059 -0.232165 0.078668 
